<?xml version="1.0" standalone="no"?>
<!DOCTYPE svg PUBLIC "-//W3C//DTD SVG 20010904//EN"
 "http://www.w3.org/TR/2001/REC-SVG-20010904/DTD/svg10.dtd">
<svg version="1.0" xmlns="http://www.w3.org/2000/svg"
 width="150.000000pt" height="150.000000pt" viewBox="0 0 150.000000 150.000000"
 preserveAspectRatio="xMidYMid meet">

<g transform="translate(0.000000,150.000000) scale(0.100000,-0.100000)"
fill="#000000" stroke="none">
<path d="M695 1097 c-59 -20 -81 -33 -142 -88 -37 -35 -60 -48 -71 -44 -69 26
-191 22 -252 -10 -50 -26 -91 -67 -118 -119 -24 -45 -27 -62 -27 -141 1 -99
18 -152 70 -213 58 -69 179 -104 288 -84 121 22 148 41 349 239 122 120 202
190 230 203 54 25 121 25 174 1 114 -52 126 -218 22 -293 -31 -22 -44 -23
-220 -28 l-188 -5 -62 -62 -63 -63 241 0 c279 0 315 7 388 71 26 23 59 65 74
93 22 43 27 64 27 131 -1 187 -119 300 -316 300 -121 -1 -167 -29 -384 -240
-200 -194 -251 -229 -331 -229 -175 0 -238 246 -83 324 52 27 105 25 168 -6
l52 -26 92 89 c124 122 157 138 273 138 87 -1 91 0 70 16 -67 52 -181 72 -261
46z"/>
<path d="M320 808 c-110 -57 -102 -209 14 -253 139 -53 256 125 149 227 -29
28 -72 48 -102 48 -9 0 -37 -10 -61 -22z"/>
</g>
</svg>
